<svg id="Layer_1" data-name="Layer 1" xmlns="http://www.w3.org/2000/svg" viewBox="0 0 250.8 97.88"><title>Artboard 2</title><path d="M32.52,71.78V26.46c.19,0,.57-.05,1.16-.08L36,26.22q3.38-.25,6.13-.37c1.84-.08,3.48-.13,4.91-.13a52,52,0,0,1,6.45.32,18.22,18.22,0,0,1,4.62,1.23,11.49,11.49,0,0,1,3.57,2.23A9.88,9.88,0,0,1,64,33.07a11.69,11.69,0,0,1,.72,2.6,18.31,18.31,0,0,1,.23,3.06V71.78ZM37.12,68H60.33V38.7a11.63,11.63,0,0,0-.67-4.22,6.13,6.13,0,0,0-2-2.71,7.44,7.44,0,0,0-2.43-1.3A15.5,15.5,0,0,0,52,29.84a18.57,18.57,0,0,0-2.18-.2c-.87,0-1.89-.05-3.06-.05s-2.53,0-4.15.12-3.45.21-5.52.37Z" fill="#353547"/><path d="M76.71,55V26.43h4.57V50.51L77.59,55Z" fill="#353547"/><path d="M93.51,71.78V44.39a23.89,23.89,0,0,1,.6-5.45,18.41,18.41,0,0,1,1.55-4.36c.56-1,1.11-1.84,1.63-2.58a11.53,11.53,0,0,1,1.53-1.78h-10V26.43h14.73V29.8A10.2,10.2,0,0,0,102.3,31a13,13,0,0,0-1.14,1.57,16.09,16.09,0,0,0-1,1.84,18.87,18.87,0,0,0-1,2.64A22.52,22.52,0,0,0,98.47,40a17.74,17.74,0,0,0-.3,2.12c-.06.74-.09,1.5-.09,2.27V71.78Z" fill="#353547"/><path d="M129.62,71.78V38.94q0-4.45-2.11-6.54a10.4,10.4,0,0,0-6.22-2.56c-.59-.07-1.21-.13-1.88-.18s-1.39-.07-2.16-.07-2,0-3.34.05-2.74.09-4.12.16-2.56.14-3.55.21V26.08q3-.18,5.52-.27c1.66-.06,3.18-.09,4.54-.09a51,51,0,0,1,6.39.32,18.42,18.42,0,0,1,4.57,1.2,11.25,11.25,0,0,1,3.68,2.26,10,10,0,0,1,2.34,3.68,12.77,12.77,0,0,1,.7,2.67,21,21,0,0,1,.21,3.09V71.78Z" fill="#353547"/><path d="M144,71.78V55.92a35.66,35.66,0,0,1,.25-4.29,16.81,16.81,0,0,1,.88-3.7,12.07,12.07,0,0,1,1.9-3.36,8.31,8.31,0,0,1,2.56-2.36,11.58,11.58,0,0,1,3.77-1.37l-8.79-14.41h4.95L165.9,53.57a8.46,8.46,0,0,0,1-.34,4.63,4.63,0,0,0,.86-.44,7.56,7.56,0,0,0,3.29-3.53,16.15,16.15,0,0,0,1-6.27V26.43h4.43V43a27.41,27.41,0,0,1-.49,5.52,12.57,12.57,0,0,1-1.55,4.11A9.9,9.9,0,0,1,172,55.29a11,11,0,0,1-3.87,1.83L177,71.78h-5L155.5,44.43a6.91,6.91,0,0,0-6.05,4.67,18.66,18.66,0,0,0-1,6.82V71.78Z" fill="#353547"/><path d="M184.53,71.78l3.27-34.66c0-.36,0-.67.06-.95s0-.57,0-.85a13.18,13.18,0,0,0-.12-1.83c-.08-.56-.22-1.21-.4-2,0-.19-.17-.56-.35-1.11s-.39-1.1-.58-1.64-.32-.85-.34-1c-.09-.28-.19-.55-.28-.82a6.86,6.86,0,0,0-.32-.79h4.64c.43,1,.78,1.88,1.06,2.69a17.51,17.51,0,0,1,.63,2.23h.46a8.21,8.21,0,0,1,1.79-1.76,15.61,15.61,0,0,1,6.35-3.08,19.73,19.73,0,0,1,4.83-.58,14.86,14.86,0,0,1,4,.51,12.19,12.19,0,0,1,3.28,1.46,9.8,9.8,0,0,1,2,1.66,12.15,12.15,0,0,1,1.55,2.07,15.56,15.56,0,0,1,1.65,4.36,24,24,0,0,1,.56,5.41V71.78H203.91V68h9.8V41.19a17.93,17.93,0,0,0-.66-5.08A8.74,8.74,0,0,0,211,32.44a7.23,7.23,0,0,0-1.74-1.51A8.14,8.14,0,0,0,207,30a10.9,10.9,0,0,0-2.79-.33,14.65,14.65,0,0,0-4.56.7A13.17,13.17,0,0,0,196.17,32,14.46,14.46,0,0,0,194,33.9a9.1,9.1,0,0,0-1.58,2.34l-3.34,35.54Z" fill="#353547"/><path d="M112.34,8.39c-5.54,4.6-8.51,11.11-6.63,14.54s7.9,2.48,13.45-2.11,8.51-11.11,6.62-14.54S117.88,3.8,112.34,8.39ZM112.5,14c4.16-3.45,8.08-5.23,8.77-4s-2.13,5.05-6.29,8.5-8.08,5.23-8.77,4S108.35,17.46,112.5,14Z" fill="#353547"/><path d="M83.71,6.28c-1.88,3.43,1.09,9.94,6.63,14.54s11.56,5.54,13.44,2.11S102.7,13,97.16,8.39,85.59,2.85,83.71,6.28Zm19.57,16.23c-.68,1.25-4.61-.53-8.76-4s-7-7.26-6.29-8.5,4.61.53,8.76,4S104,21.26,103.28,22.51Z" fill="#353547"/><rect x="102" y="20" width="6" height="6" rx="1" ry="1" fill="#353547"/></svg>